# xmcd
#
# Track frame offsets: 
#        150
#        25182
#        43325
#        55502
#        73340
#        92292
#        106792
#        119105
#        145520
#        160235
#        174650
#
# Disc length: 2335 seconds
#
# Revision: 0
# Processed by: cddbd v1.4PL0 Copyright (c) Steve Scherf et al.
# Submitted via: ExactAudioCopy v0.90b3
#
DISCID=91091d0b
DTITLE=Kevin Bloody Wilson - Born Again Piss Tank
DYEAR=1900
DGENRE=Comedy
TTITLE0=Born Again Piss Tank
TTITLE1=Kev's Love Song (Dinkum 'bout Ya Darlin')
TTITLE2=Supa Mega Fuggly
TTITLE3=Manuel the Bandito
TTITLE4=I Knew the Bride (When She Used to be a Moll)
TTITLE5=Fair and Just
TTITLE6=Anytime at All
TTITLE7=The Kid (He Swears a Little Bit)
TTITLE8=Dick on Her Mind
TTITLE9=Rootin' in the Back of the Ute
TTITLE10=Backwards Message
EXTD=
EXTT0=
EXTT1=
EXTT2=
EXTT3=
EXTT4=
EXTT5=
EXTT6=
EXTT7=
EXTT8=
EXTT9=
EXTT10=
PLAYORDER=
